# xmcd
#
# Track frame offsets: 
#        150
#        1785
#        13041
#        16709
#        40149
#        56040
#        77641
#        96779
#        115568
#        131503
#        147742
#        165709
#        182864
#        212314
#
# Disc length: 3201 seconds
#
# Revision: 0
# Processed by: cddbd v1.5.2PL0 Copyright (c) Steve Scherf et al.
# Submitted via: ExactAudioCopy v1.0b3
#
DISCID=aa0c7f0e
DTITLE=B.B. King - Blues Is King
DYEAR=1967
DGENRE=Blues
TTITLE0=Introduction
TTITLE1=Waitin' On You
TTITLE2=Introduction
TTITLE3=Gamblers' Blues
TTITLE4=Tired Of Your Jive
TTITLE5=Night Life
TTITLE6=Buzz Me
TTITLE7=Don't Answer The Door
TTITLE8=Blind Love
TTITLE9=I Know What You're Puttin' Down
TTITLE10=Baby Get Lost
TTITLE11=Gonna Keep On Loving You
TTITLE12=Goin' Down Slow (Live) - Bonus Track
TTITLE13=Sweet Sixteen, Parts One And Two (Live, Complete Version) - B
TTITLE13=onus Track
EXTD=
EXTT0=
EXTT1=
EXTT2=
EXTT3=
EXTT4=
EXTT5=
EXTT6=
EXTT7=
EXTT8=
EXTT9=
EXTT10=
EXTT11=
EXTT12=
EXTT13=
PLAYORDER=
